<svg width="218" height="215" viewBox="0 0 218 215" fill="none" xmlns="http://www.w3.org/2000/svg">
<rect width="218" height="215" fill="white"/>
<ellipse cx="109" cy="107.5" rx="109" ry="107.5" fill="#D9D9D9"/>
<ellipse cx="109" cy="108" rx="104" ry="101" fill="#1C1A1A"/>
<ellipse cx="109" cy="108" rx="98" ry="95" fill="#D9D9D9"/>
<ellipse cx="111.007" cy="107.79" rx="98.2783" ry="95" transform="rotate(-1.05298 111.007 107.79)" fill="#D9D9D9"/>
<ellipse cx="111.016" cy="108.232" rx="93.7701" ry="89.2558" transform="rotate(-1.05298 111.016 108.232)" fill="#1C1A1A"/>
<ellipse cx="111.016" cy="108.232" rx="88.3603" ry="83.9535" transform="rotate(-1.05298 111.016 108.232)" fill="#D9D9D9"/>
<ellipse cx="110.517" cy="107.409" rx="85.7997" ry="84.8138" transform="rotate(-1.05298 110.517 107.409)" fill="#D9D9D9"/>
<ellipse cx="110.524" cy="107.803" rx="81.8639" ry="79.6856" transform="rotate(-1.05298 110.524 107.803)" fill="#1C1A1A"/>
<ellipse cx="110.524" cy="107.803" rx="77.141" ry="74.9518" transform="rotate(-1.05298 110.524 107.803)" fill="#D9D9D9"/>
<ellipse cx="109.98" cy="108.906" rx="75.4393" ry="76.533" transform="rotate(-1.05298 109.98 108.906)" fill="#D9D9D9"/>
<ellipse cx="109.986" cy="109.262" rx="71.9788" ry="71.9055" transform="rotate(-1.05298 109.986 109.262)" fill="#1C1A1A"/>
<ellipse cx="109.986" cy="109.262" rx="67.8262" ry="67.6338" transform="rotate(-1.05298 109.986 109.262)" fill="#D9D9D9"/>
<ellipse cx="111.201" cy="106.783" rx="67.0254" ry="64.5626" transform="rotate(-1.05298 111.201 106.783)" fill="#D9D9D9"/>
<ellipse cx="111.206" cy="107.084" rx="63.9509" ry="60.6588" transform="rotate(-1.05298 111.206 107.084)" fill="#1C1A1A"/>
<ellipse cx="111.206" cy="107.084" rx="60.2614" ry="57.0553" transform="rotate(-1.05298 111.206 107.084)" fill="#D9D9D9"/>
<ellipse cx="109" cy="110.5" rx="9" ry="8.5" fill="white"/>
<g filter="url(#filter0_d_0_1)">
<path d="M71.8807 87V75.3636H76.6875C77.5587 75.3636 78.3106 75.5208 78.9432 75.8352C79.5795 76.1458 80.0701 76.5928 80.4148 77.1761C80.7595 77.7557 80.9318 78.4432 80.9318 79.2386C80.9318 80.0455 80.7557 80.7311 80.4034 81.2955C80.0511 81.8561 79.5511 82.2841 78.9034 82.5795C78.2557 82.8712 77.4886 83.017 76.6023 83.017H73.5625V80.8011H76.0795C76.5038 80.8011 76.858 80.7462 77.142 80.6364C77.4299 80.5227 77.6477 80.3523 77.7955 80.125C77.9432 79.8939 78.017 79.5985 78.017 79.2386C78.017 78.8788 77.9432 78.5814 77.7955 78.3466C77.6477 78.108 77.4299 77.9299 77.142 77.8125C76.8542 77.6913 76.5 77.6307 76.0795 77.6307H74.6932V87H71.8807ZM78.4318 81.6818L81.3295 87H78.2614L75.4205 81.6818H78.4318ZM86.3821 87.1648C85.4692 87.1648 84.6813 86.9848 84.0185 86.625C83.3594 86.2614 82.8518 85.7443 82.4957 85.0739C82.1435 84.3996 81.9673 83.5985 81.9673 82.6705C81.9673 81.7689 82.1454 80.9811 82.5014 80.3068C82.8575 79.6288 83.3594 79.1023 84.0071 78.7273C84.6548 78.3485 85.4181 78.1591 86.2969 78.1591C86.9181 78.1591 87.4863 78.2557 88.0014 78.4489C88.5166 78.642 88.9616 78.928 89.3366 79.3068C89.7116 79.6856 90.0033 80.1534 90.2116 80.7102C90.42 81.2633 90.5241 81.8977 90.5241 82.6136V83.3068H82.9389V81.6932H87.9389C87.9351 81.3977 87.8651 81.1345 87.7287 80.9034C87.5923 80.6723 87.4048 80.4924 87.1662 80.3636C86.9313 80.2311 86.6605 80.1648 86.3537 80.1648C86.0431 80.1648 85.7647 80.2348 85.5185 80.375C85.2723 80.5114 85.0772 80.6989 84.9332 80.9375C84.7893 81.1723 84.7135 81.4394 84.706 81.7386V83.3807C84.706 83.7367 84.776 84.0492 84.9162 84.3182C85.0563 84.5833 85.2552 84.7898 85.5128 84.9375C85.7704 85.0852 86.0772 85.1591 86.4332 85.1591C86.6795 85.1591 86.9029 85.125 87.1037 85.0568C87.3045 84.9886 87.4768 84.8883 87.6207 84.7557C87.7647 84.6231 87.8726 84.4602 87.9446 84.267L90.4957 84.3409C90.3897 84.9129 90.1567 85.411 89.7969 85.8352C89.4408 86.2557 88.973 86.5833 88.3935 86.8182C87.8139 87.0492 87.1435 87.1648 86.3821 87.1648ZM96.017 87.1648C95.0966 87.1648 94.3068 86.9754 93.6477 86.5966C92.9924 86.2178 92.4886 85.6913 92.1364 85.017C91.7841 84.339 91.608 83.5549 91.608 82.6648C91.608 81.7708 91.7841 80.9867 92.1364 80.3125C92.4924 79.6345 92.9981 79.1061 93.6534 78.7273C94.3125 78.3485 95.0985 78.1591 96.0114 78.1591C96.8182 78.1591 97.5208 78.3049 98.1193 78.5966C98.7216 78.8883 99.1913 79.3011 99.5284 79.8352C99.8693 80.3655 100.049 80.9886 100.068 81.7045H97.4716C97.4186 81.2576 97.267 80.9072 97.017 80.6534C96.7708 80.3996 96.4489 80.2727 96.0511 80.2727C95.7292 80.2727 95.447 80.3636 95.2045 80.5455C94.9621 80.7235 94.7727 80.9886 94.6364 81.3409C94.5038 81.6894 94.4375 82.1212 94.4375 82.6364C94.4375 83.1515 94.5038 83.5871 94.6364 83.9432C94.7727 84.2955 94.9621 84.5625 95.2045 84.7443C95.447 84.9223 95.7292 85.0114 96.0511 85.0114C96.3087 85.0114 96.536 84.9564 96.733 84.8466C96.9337 84.7367 97.0985 84.5758 97.2273 84.3636C97.3561 84.1477 97.4375 83.8864 97.4716 83.5795H100.068C100.042 84.2992 99.8617 84.928 99.5284 85.4659C99.1989 86.0038 98.7348 86.4223 98.1364 86.7216C97.5417 87.017 96.8352 87.1648 96.017 87.1648ZM105.564 87.1648C104.647 87.1648 103.859 86.9773 103.2 86.6023C102.545 86.2235 102.039 85.697 101.683 85.0227C101.331 84.3447 101.155 83.5587 101.155 82.6648C101.155 81.767 101.331 80.9811 101.683 80.3068C102.039 79.6288 102.545 79.1023 103.2 78.7273C103.859 78.3485 104.647 78.1591 105.564 78.1591C106.481 78.1591 107.267 78.3485 107.922 78.7273C108.581 79.1023 109.087 79.6288 109.439 80.3068C109.795 80.9811 109.973 81.767 109.973 82.6648C109.973 83.5587 109.795 84.3447 109.439 85.0227C109.087 85.697 108.581 86.2235 107.922 86.6023C107.267 86.9773 106.481 87.1648 105.564 87.1648ZM105.581 85.0682C105.914 85.0682 106.196 84.9659 106.428 84.7614C106.659 84.5568 106.835 84.2727 106.956 83.9091C107.081 83.5455 107.143 83.125 107.143 82.6477C107.143 82.1629 107.081 81.7386 106.956 81.375C106.835 81.0114 106.659 80.7273 106.428 80.5227C106.196 80.3182 105.914 80.2159 105.581 80.2159C105.236 80.2159 104.945 80.3182 104.706 80.5227C104.471 80.7273 104.291 81.0114 104.166 81.375C104.045 81.7386 103.984 82.1629 103.984 82.6477C103.984 83.125 104.045 83.5455 104.166 83.9091C104.291 84.2727 104.471 84.5568 104.706 84.7614C104.945 84.9659 105.236 85.0682 105.581 85.0682ZM111.396 87V78.2727H114.095V79.8636H114.186C114.345 79.2879 114.605 78.8598 114.964 78.5795C115.324 78.2955 115.743 78.1534 116.22 78.1534C116.349 78.1534 116.482 78.1629 116.618 78.1818C116.754 78.197 116.881 78.2216 116.999 78.2557V80.6705C116.866 80.625 116.692 80.589 116.476 80.5625C116.264 80.536 116.074 80.5227 115.908 80.5227C115.578 80.5227 115.281 80.5966 115.016 80.7443C114.754 80.8883 114.548 81.0909 114.396 81.3523C114.249 81.6098 114.175 81.9129 114.175 82.2614V87H111.396ZM120.865 87.125C120.221 87.125 119.636 86.9583 119.109 86.625C118.583 86.2917 118.162 85.7917 117.848 85.125C117.534 84.4583 117.376 83.6307 117.376 82.642C117.376 81.6155 117.539 80.7708 117.865 80.108C118.191 79.4451 118.617 78.9545 119.143 78.6364C119.674 78.3182 120.244 78.1591 120.854 78.1591C121.312 78.1591 121.704 78.2386 122.03 78.3977C122.356 78.553 122.625 78.7538 122.837 79C123.049 79.2462 123.21 79.5019 123.32 79.767H123.376V75.3636H126.155V87H123.405V85.5852H123.32C123.202 85.8542 123.036 86.1061 122.82 86.3409C122.604 86.5758 122.333 86.7652 122.007 86.9091C121.685 87.053 121.304 87.125 120.865 87.125ZM121.831 84.9602C122.168 84.9602 122.456 84.8655 122.695 84.6761C122.933 84.483 123.117 84.2121 123.246 83.8636C123.375 83.5152 123.439 83.1061 123.439 82.6364C123.439 82.1591 123.375 81.7481 123.246 81.4034C123.121 81.0587 122.937 80.7936 122.695 80.608C122.456 80.4223 122.168 80.3295 121.831 80.3295C121.486 80.3295 121.195 80.4242 120.956 80.6136C120.717 80.803 120.536 81.0701 120.411 81.4148C120.289 81.7595 120.229 82.1667 120.229 82.6364C120.229 83.1061 120.291 83.5152 120.416 83.8636C120.541 84.2121 120.721 84.483 120.956 84.6761C121.195 84.8655 121.486 84.9602 121.831 84.9602ZM131.349 87V75.3636H136.202C137.073 75.3636 137.802 75.4867 138.389 75.733C138.98 75.9792 139.423 76.3239 139.719 76.767C140.018 77.2102 140.168 77.7235 140.168 78.3068C140.168 78.75 140.075 79.1458 139.889 79.4943C139.704 79.839 139.448 80.125 139.122 80.3523C138.796 80.5795 138.42 80.7386 137.991 80.8295V80.9432C138.461 80.9659 138.895 81.0928 139.293 81.3239C139.694 81.5549 140.016 81.8769 140.259 82.2898C140.501 82.6989 140.622 83.1837 140.622 83.7443C140.622 84.3693 140.463 84.928 140.145 85.4205C139.827 85.9091 139.366 86.2955 138.764 86.5795C138.162 86.8598 137.431 87 136.571 87H131.349ZM134.162 84.733H135.901C136.51 84.733 136.959 84.6174 137.247 84.3864C137.539 84.1553 137.685 83.8333 137.685 83.4205C137.685 83.1212 137.615 82.8636 137.474 82.6477C137.334 82.428 137.135 82.2595 136.878 82.142C136.62 82.0208 136.312 81.9602 135.952 81.9602H134.162V84.733ZM134.162 80.1477H135.719C136.026 80.1477 136.298 80.0966 136.537 79.9943C136.776 79.892 136.961 79.7443 137.094 79.5511C137.23 79.358 137.298 79.125 137.298 78.8523C137.298 78.4621 137.16 78.1553 136.884 77.9318C136.607 77.7083 136.234 77.5966 135.764 77.5966H134.162V80.1477ZM146.048 87.1648C145.132 87.1648 144.344 86.9773 143.685 86.6023C143.029 86.2235 142.524 85.697 142.168 85.0227C141.815 84.3447 141.639 83.5587 141.639 82.6648C141.639 81.767 141.815 80.9811 142.168 80.3068C142.524 79.6288 143.029 79.1023 143.685 78.7273C144.344 78.3485 145.132 78.1591 146.048 78.1591C146.965 78.1591 147.751 78.3485 148.406 78.7273C149.065 79.1023 149.571 79.6288 149.923 80.3068C150.279 80.9811 150.457 81.767 150.457 82.6648C150.457 83.5587 150.279 84.3447 149.923 85.0227C149.571 85.697 149.065 86.2235 148.406 86.6023C147.751 86.9773 146.965 87.1648 146.048 87.1648ZM146.065 85.0682C146.399 85.0682 146.681 84.9659 146.912 84.7614C147.143 84.5568 147.319 84.2727 147.44 83.9091C147.565 83.5455 147.628 83.125 147.628 82.6477C147.628 82.1629 147.565 81.7386 147.44 81.375C147.319 81.0114 147.143 80.7273 146.912 80.5227C146.681 80.3182 146.399 80.2159 146.065 80.2159C145.721 80.2159 145.429 80.3182 145.19 80.5227C144.955 80.7273 144.776 81.0114 144.651 81.375C144.529 81.7386 144.469 82.1629 144.469 82.6477C144.469 83.125 144.529 83.5455 144.651 83.9091C144.776 84.2727 144.955 84.5568 145.19 84.7614C145.429 84.9659 145.721 85.0682 146.065 85.0682ZM153.932 78.2727L155.369 81.1477L156.858 78.2727H159.659L157.222 82.6364L159.75 87H156.972L155.369 84.1023L153.807 87H150.989L153.523 82.6364L151.114 78.2727H153.932Z" fill="white"/>
<path d="M71.8807 87H70.8807V88H71.8807V87ZM71.8807 75.3636V74.3636H70.8807V75.3636H71.8807ZM78.9432 75.8352L78.4981 76.7307L78.5045 76.7339L78.9432 75.8352ZM80.4148 77.1761L79.5538 77.6849L79.5553 77.6873L80.4148 77.1761ZM80.4034 81.2955L81.2501 81.8275L81.2517 81.8249L80.4034 81.2955ZM78.9034 82.5795L79.314 83.4914L79.3184 83.4894L78.9034 82.5795ZM73.5625 83.017H72.5625V84.017H73.5625V83.017ZM73.5625 80.8011V79.8011H72.5625V80.8011H73.5625ZM77.142 80.6364L77.5027 81.5691L77.5092 81.5665L77.142 80.6364ZM77.7955 80.125L78.6339 80.67L78.638 80.6637L77.7955 80.125ZM77.7955 78.3466L76.9452 78.873L76.949 78.879L77.7955 78.3466ZM77.142 77.8125L76.754 78.7342L76.7644 78.7384L77.142 77.8125ZM74.6932 77.6307V76.6307H73.6932V77.6307H74.6932ZM74.6932 87V88H75.6932V87H74.6932ZM78.4318 81.6818L79.3099 81.2034L79.0258 80.6818H78.4318V81.6818ZM81.3295 87V88H83.0132L82.2077 86.5215L81.3295 87ZM78.2614 87L77.3793 87.4712L77.6618 88H78.2614V87ZM75.4205 81.6818V80.6818H73.7525L74.5384 82.153L75.4205 81.6818ZM72.8807 87V75.3636H70.8807V87H72.8807ZM71.8807 76.3636H76.6875V74.3636H71.8807V76.3636ZM76.6875 76.3636C77.4396 76.3636 78.0323 76.4992 78.4981 76.7307L79.3882 74.9397C78.5889 74.5424 77.6778 74.3636 76.6875 74.3636V76.3636ZM78.5045 76.7339C78.9734 76.9627 79.3134 77.2779 79.5538 77.6849L81.2757 76.6674C80.8268 75.9077 80.1857 75.3289 79.3818 74.9366L78.5045 76.7339ZM79.5553 77.6873C79.7927 78.0864 79.9318 78.5905 79.9318 79.2386H81.9318C81.9318 78.2959 81.7263 77.425 81.2742 76.6649L79.5553 77.6873ZM79.9318 79.2386C79.9318 79.8983 79.789 80.3912 79.5551 80.766L81.2517 81.8249C81.7224 81.0709 81.9318 80.1927 81.9318 79.2386H79.9318ZM79.5567 80.7634C79.3162 81.1461 78.9724 81.4489 78.4884 81.6697L79.3184 83.4894C80.1298 83.1192 80.786 82.5661 81.2501 81.8275L79.5567 80.7634ZM78.4928 81.6677C78.002 81.8887 77.3811 82.017 76.6023 82.017V84.017C77.5961 84.017 78.5094 83.8537 79.314 83.4914L78.4928 81.6677ZM76.6023 82.017H73.5625V84.017H76.6023V82.017ZM74.5625 83.017V80.8011H72.5625V83.017H74.5625ZM73.5625 81.8011H76.0795V79.8011H73.5625V81.8011ZM76.0795 81.8011C76.5822 81.8011 77.068 81.7371 77.5027 81.5691L76.7814 79.7037C76.6479 79.7553 76.4254 79.8011 76.0795 79.8011V81.8011ZM77.5092 81.5665C77.9619 81.3878 78.3573 81.0955 78.6339 80.67L76.957 79.58C76.9381 79.6091 76.8979 79.6576 76.7749 79.7062L77.5092 81.5665ZM78.638 80.6637C78.9161 80.2287 79.017 79.7309 79.017 79.2386H77.017C77.017 79.4661 76.9703 79.5592 76.9529 79.5863L78.638 80.6637ZM79.017 79.2386C79.017 78.7454 78.9157 78.2494 78.6419 77.8141L76.949 78.879C76.9707 78.9135 77.017 79.0121 77.017 79.2386H79.017ZM78.6457 77.8202C78.3747 77.3825 77.9813 77.0748 77.5197 76.8866L76.7644 78.7384C76.8786 78.785 76.9207 78.8334 76.9452 78.8729L78.6457 77.8202ZM77.5301 76.8909C77.0848 76.7034 76.5898 76.6307 76.0795 76.6307V78.6307C76.4102 78.6307 76.6235 78.6792 76.754 78.7341L77.5301 76.8909ZM76.0795 76.6307H74.6932V78.6307H76.0795V76.6307ZM73.6932 77.6307V87H75.6932V77.6307H73.6932ZM74.6932 86H71.8807V88H74.6932V86ZM77.5537 82.1603L80.4514 87.4785L82.2077 86.5215L79.3099 81.2034L77.5537 82.1603ZM81.3295 86H78.2614V88H81.3295V86ZM79.1434 86.5288L76.3025 81.2106L74.5384 82.153L77.3793 87.4712L79.1434 86.5288ZM75.4205 82.6818H78.4318V80.6818H75.4205V82.6818ZM84.0185 86.625L83.5354 87.5006L83.5414 87.5039L84.0185 86.625ZM82.4957 85.0739L81.6094 85.537L81.6126 85.5429L82.4957 85.0739ZM82.5014 80.3068L83.3857 80.7738L83.3868 80.7717L82.5014 80.3068ZM84.0071 78.7273L84.5081 79.5927L84.5119 79.5905L84.0071 78.7273ZM88.0014 78.4489L88.3525 77.5125L88.3525 77.5125L88.0014 78.4489ZM90.2116 80.7102L89.2751 81.0607L89.2758 81.0628L90.2116 80.7102ZM90.5241 83.3068V84.3068H91.5241V83.3068H90.5241ZM82.9389 83.3068H81.9389V84.3068H82.9389V83.3068ZM82.9389 81.6932V80.6932H81.9389V81.6932H82.9389ZM87.9389 81.6932V82.6932H88.9518L88.9388 81.6804L87.9389 81.6932ZM87.1662 80.3636L86.6746 81.2345L86.6829 81.2391L86.6913 81.2437L87.1662 80.3636ZM85.5185 80.375L86.003 81.2499L86.0132 81.2441L85.5185 80.375ZM84.9332 80.9375L85.7859 81.4601L85.7895 81.454L84.9332 80.9375ZM84.706 81.7386L83.7063 81.7133L83.706 81.726V81.7386H84.706ZM84.9162 84.3182L84.0294 84.7803L84.0321 84.7855L84.9162 84.3182ZM85.5128 84.9375L85.0153 85.805L85.0153 85.805L85.5128 84.9375ZM87.1037 85.0568L87.4253 86.0037L87.4253 86.0037L87.1037 85.0568ZM87.6207 84.7557L88.2982 85.4912L88.2982 85.4912L87.6207 84.7557ZM87.9446 84.267L87.9735 83.2675L87.2576 83.2467L87.0075 83.9179L87.9446 84.267ZM90.4957 84.3409L91.479 84.5232L91.6919 83.3751L90.5247 83.3413L90.4957 84.3409ZM89.7969 85.8352L89.0343 85.1884L89.0337 85.189L89.7969 85.8352ZM88.3935 86.8182L88.7638 87.7471L88.769 87.745L88.3935 86.8182ZM86.3821 86.1648C85.6011 86.1648 84.9842 86.0114 84.4956 85.7461L83.5414 87.5039C84.3785 87.9583 85.3374 88.1648 86.3821 88.1648V86.1648ZM84.5015 85.7494C84.014 85.4804 83.6447 85.1053 83.3789 84.6048L81.6126 85.5429C82.0589 86.3833 82.7048 87.0423 83.5354 87.5006L84.5015 85.7494ZM83.3821 84.6108C83.1192 84.1076 82.9673 83.4723 82.9673 82.6705H80.9673C80.9673 83.7247 81.1678 84.6916 81.6094 85.5369L83.3821 84.6108ZM82.9673 82.6705C82.9673 81.9021 83.1184 81.28 83.3857 80.7738L81.6171 79.8398C81.1724 80.6821 80.9673 81.6358 80.9673 82.6705H82.9673ZM83.3868 80.7717C83.6572 80.2567 84.0277 79.8708 84.5081 79.5927L83.5061 77.8618C82.691 78.3337 82.0577 79.0009 81.6161 79.8419L83.3868 80.7717ZM84.5119 79.5905C84.982 79.3156 85.5648 79.1591 86.2969 79.1591V77.1591C85.2713 77.1591 84.3276 77.3814 83.5023 77.864L84.5119 79.5905ZM86.2969 79.1591C86.8135 79.1591 87.261 79.2392 87.6503 79.3852L88.3525 77.5125C87.7116 77.2722 87.0226 77.1591 86.2969 77.1591V79.1591ZM87.6503 79.3852C88.0347 79.5293 88.3559 79.7376 88.626 80.0104L90.0473 78.6033C89.5674 78.1185 88.9985 77.7548 88.3525 77.5125L87.6503 79.3852ZM88.626 80.0104C88.8907 80.2777 89.1105 80.6208 89.2751 81.0607L91.1482 80.3598C90.8961 79.686 90.5326 79.0935 90.0473 78.6033L88.626 80.0104ZM89.2758 81.0628C89.4338 81.4821 89.5241 81.9934 89.5241 82.6136H91.5241C91.5241 81.802 91.4062 81.0444 91.1474 80.3577L89.2758 81.0628ZM89.5241 82.6136V83.3068H91.5241V82.6136H89.5241ZM90.5241 82.3068H82.9389V84.3068H90.5241V82.3068ZM83.9389 83.3068V81.6932H81.9389V83.3068H83.9389ZM82.9389 82.6932H87.9389V80.6932H82.9389V82.6932ZM88.9388 81.6804C88.933 81.2286 88.8237 80.7913 88.5899 80.3952L86.8675 81.4117C86.9064 81.4776 86.9372 81.5668 86.939 81.706L88.9388 81.6804ZM88.5899 80.3952C88.36 80.0056 88.0381 79.6979 87.6411 79.4836L86.6913 81.2437C86.7715 81.287 86.8247 81.3391 86.8675 81.4117L88.5899 80.3952ZM87.6578 79.4928C87.2533 79.2645 86.8087 79.1648 86.3537 79.1648V81.1648C86.5123 81.1648 86.6094 81.1977 86.6746 81.2345L87.6578 79.4928ZM86.3537 79.1648C85.8868 79.1648 85.435 79.2719 85.0238 79.5059L86.0132 81.2441C86.0944 81.1978 86.1994 81.1648 86.3537 81.1648V79.1648ZM85.034 79.5002C84.6362 79.7205 84.3123 80.0309 84.0769 80.421L85.7895 81.454C85.8421 81.3668 85.9083 81.3022 86.003 81.2498L85.034 79.5002ZM84.0806 80.4149C83.8369 80.8126 83.7179 81.254 83.7063 81.7133L85.7056 81.7639C85.7092 81.6248 85.7417 81.5321 85.7858 81.4601L84.0806 80.4149ZM83.706 81.7386V83.3807H85.706V81.7386H83.706ZM83.706 83.3807C83.706 83.8697 83.8029 84.3458 84.0294 84.7803L85.803 83.856C85.7492 83.7527 85.706 83.6038 85.706 83.3807H83.706ZM84.0321 84.7855C84.2597 85.2161 84.5918 85.5621 85.0153 85.805L86.0103 84.07C85.9186 84.0174 85.853 83.9505 85.8003 83.8509L84.0321 84.7855ZM85.0153 85.805C85.4518 86.0553 85.9374 86.1591 86.4332 86.1591V84.1591C86.217 84.1591 86.0889 84.1151 86.0103 84.07L85.0153 85.805ZM86.4332 86.1591C86.7716 86.1591 87.1058 86.1122 87.4253 86.0037L86.7821 84.1099C86.7001 84.1378 86.5873 84.1591 86.4332 84.1591V86.1591ZM87.4253 86.0037C87.747 85.8945 88.0434 85.726 88.2982 85.4912L86.9433 84.0201C86.9102 84.0506 86.8619 84.0828 86.7821 84.1099L87.4253 86.0037ZM88.2982 85.4912C88.5641 85.2463 88.7578 84.9487 88.8817 84.6162L87.0075 83.9179C86.9875 83.9718 86.9653 83.9999 86.9433 84.0201L88.2982 85.4912ZM87.9157 85.2666L90.4668 85.3405L90.5247 83.3413L87.9735 83.2675L87.9157 85.2666ZM89.5125 84.1586C89.4367 84.5673 89.2761 84.9033 89.0343 85.1884L90.5595 86.4821C91.0374 85.9187 91.3426 85.2585 91.479 84.5232L89.5125 84.1586ZM89.0337 85.189C88.7957 85.4701 88.4679 85.709 88.0179 85.8914L88.769 87.745C89.4781 87.4576 90.086 87.0412 90.56 86.4815L89.0337 85.189ZM88.0231 85.8893C87.5842 86.0643 87.0438 86.1648 86.3821 86.1648V88.1648C87.2432 88.1648 88.0436 88.0342 88.7638 87.7471L88.0231 85.8893ZM93.6477 86.5966L93.1473 87.4624L93.1494 87.4636L93.6477 86.5966ZM92.1364 85.017L91.249 85.4781L91.25 85.4801L92.1364 85.017ZM92.1364 80.3125L91.251 79.8476L91.25 79.8494L92.1364 80.3125ZM93.6534 78.7273L93.1551 77.8603L93.153 77.8615L93.6534 78.7273ZM98.1193 78.5966L97.6812 79.4955L97.6835 79.4966L98.1193 78.5966ZM99.5284 79.8352L98.6827 80.369L98.6872 80.376L99.5284 79.8352ZM100.068 81.7045V82.7045H101.095L101.068 81.6781L100.068 81.7045ZM97.4716 81.7045L96.4786 81.8224L96.5832 82.7045H97.4716V81.7045ZM97.017 80.6534L96.2993 81.3497L96.3046 81.3552L97.017 80.6534ZM95.2045 80.5455L95.7965 81.3515L95.8045 81.3455L95.2045 80.5455ZM94.6364 81.3409L93.7038 80.9799L93.7017 80.9853L94.6364 81.3409ZM94.6364 83.9432L93.6991 84.2921L93.7038 84.3042L94.6364 83.9432ZM95.2045 84.7443L94.6045 85.5444L94.6126 85.5503L95.2045 84.7443ZM96.733 84.8466L96.2529 83.9693L96.2459 83.9732L96.733 84.8466ZM97.2273 84.3636L98.0821 84.8826L98.0861 84.8759L97.2273 84.3636ZM97.4716 83.5795V82.5795H96.5765L96.4777 83.4691L97.4716 83.5795ZM100.068 83.5795L101.068 83.6164L101.106 82.5795H100.068V83.5795ZM99.5284 85.4659L98.6784 84.9391L98.6757 84.9435L99.5284 85.4659ZM98.1364 86.7216L98.5813 87.6172L98.5836 87.616L98.1364 86.7216ZM96.017 86.1648C95.2347 86.1648 94.6245 86.0046 94.146 85.7296L93.1494 87.4636C93.9891 87.9462 94.9585 88.1648 96.017 88.1648V86.1648ZM94.1482 85.7308C93.658 85.4475 93.2876 85.061 93.0227 84.554L91.25 85.4801C91.6897 86.3216 92.3269 86.9881 93.1473 87.4624L94.1482 85.7308ZM93.0237 84.556C92.7568 84.0422 92.608 83.421 92.608 82.6648H90.608C90.608 83.6889 90.8114 84.6358 91.249 85.4781L93.0237 84.556ZM92.608 82.6648C92.608 81.9039 92.7571 81.2838 93.0227 80.7756L91.25 79.8494C90.811 80.6897 90.608 81.6378 90.608 82.6648H92.608ZM93.0217 80.7774C93.291 80.2646 93.6642 79.8761 94.1539 79.593L93.153 77.8615C92.332 78.336 91.6938 79.0043 91.251 79.8476L93.0217 80.7774ZM94.1517 79.5943C94.6314 79.3186 95.2382 79.1591 96.0114 79.1591V77.1591C94.9588 77.1591 93.9936 77.3784 93.1551 77.8603L94.1517 79.5943ZM96.0114 79.1591C96.6981 79.1591 97.2451 79.283 97.6812 79.4955L98.5574 77.6977C97.7966 77.3269 96.9383 77.1591 96.0114 77.1591V79.1591ZM97.6835 79.4966C98.1281 79.7119 98.4514 80.0024 98.6828 80.369L100.374 79.3015C99.9312 78.5999 99.3151 78.0646 98.5552 77.6966L97.6835 79.4966ZM98.6872 80.376C98.9164 80.7325 99.0538 81.1724 99.0685 81.731L101.068 81.6781C101.045 80.8049 100.822 79.9986 100.37 79.2945L98.6872 80.376ZM100.068 80.7045H97.4716V82.7045H100.068V80.7045ZM98.4646 81.5867C98.3924 80.9783 98.1723 80.4012 97.7294 79.9516L96.3046 81.3552C96.3618 81.4132 96.4447 81.5368 96.4786 81.8224L98.4646 81.5867ZM97.7348 79.9571C97.2759 79.4841 96.6823 79.2727 96.0511 79.2727V81.2727C96.2154 81.2727 96.2657 81.3151 96.2993 81.3497L97.7348 79.9571ZM96.0511 79.2727C95.5272 79.2727 95.0313 79.4254 94.6045 79.7455L95.8045 81.3455C95.8627 81.3018 95.9311 81.2727 96.0511 81.2727V79.2727ZM94.6126 79.7395C94.1816 80.056 93.8914 80.4952 93.7038 80.9799L95.5689 81.7019C95.654 81.4821 95.7426 81.391 95.7965 81.3515L94.6126 79.7395ZM93.7017 80.9853C93.5129 81.4817 93.4375 82.0428 93.4375 82.6364H95.4375C95.4375 82.1996 95.4947 81.8971 95.571 81.6965L93.7017 80.9853ZM93.4375 82.6364C93.4375 83.231 93.5132 83.7925 93.6992 84.2921L95.5735 83.5942C95.4944 83.3817 95.4375 83.072 95.4375 82.6364H93.4375ZM93.7038 84.3042C93.8911 84.7882 94.1794 85.2255 94.6045 85.5443L95.8045 83.9443C95.7448 83.8995 95.6543 83.8028 95.5689 83.5822L93.7038 84.3042ZM94.6126 85.5503C95.0391 85.8635 95.5322 86.0114 96.0511 86.0114V84.0114C95.9262 84.0114 95.8549 83.9812 95.7965 83.9383L94.6126 85.5503ZM96.0511 86.0114C96.4547 86.0114 96.8541 85.924 97.22 85.72L96.2459 83.9732C96.2179 83.9888 96.1628 84.0114 96.0511 84.0114V86.0114ZM97.213 85.7239C97.5809 85.5225 97.87 85.232 98.0821 84.8826L96.3725 83.8447C96.327 83.9196 96.2866 83.9509 96.2529 83.9693L97.213 85.7239ZM98.0861 84.8759C98.3028 84.5126 98.4191 84.1072 98.4655 83.69L96.4777 83.4691C96.4559 83.6655 96.4093 83.7829 96.3685 83.8514L98.0861 84.8759ZM97.4716 84.5795H100.068V82.5795H97.4716V84.5795ZM99.0689 83.5427C99.0478 84.1133 98.9082 84.5683 98.6784 84.9391L100.378 85.9927C100.815 85.2878 101.035 84.4852 101.068 83.6164L99.0689 83.5427ZM98.6757 84.9435C98.4499 85.3121 98.131 85.6063 97.6892 85.8272L98.5836 87.616C99.3387 87.2384 99.9478 86.6955 100.381 85.9883L98.6757 84.9435ZM97.6914 85.826C97.2634 86.0387 96.716 86.1648 96.017 86.1648V88.1648C96.9545 88.1648 97.82 87.9954 98.5813 87.6172L97.6914 85.826ZM103.2 86.6023L102.7 87.4681L102.706 87.4714L103.2 86.6023ZM101.683 85.0227L100.796 85.4838L100.799 85.4897L101.683 85.0227ZM101.683 80.3068L100.798 79.8419L100.797 79.8437L101.683 80.3068ZM103.2 78.7273L103.697 79.5952L103.699 79.5943L103.2 78.7273ZM107.922 78.7273L107.421 79.5931L107.427 79.5964L107.922 78.7273ZM109.439 80.3068L108.552 80.7679L108.555 80.7738L109.439 80.3068ZM109.439 85.0227L108.554 84.5578L108.553 84.5597L109.439 85.0227ZM107.922 86.6023L108.419 87.4702L108.42 87.4693L107.922 86.6023ZM106.428 84.7614L105.765 84.0126L105.765 84.0126L106.428 84.7614ZM106.956 83.9091L106.01 83.584L106.007 83.5929L106.956 83.9091ZM106.956 81.375L106.007 81.6912L106.01 81.7001L106.956 81.375ZM106.428 80.5227L107.09 79.774L107.09 79.774L106.428 80.5227ZM104.706 80.5227L104.055 79.7634L104.049 79.7686L104.706 80.5227ZM104.166 81.375L103.22 81.0499L103.218 81.0588L104.166 81.375ZM104.166 83.9091L103.217 84.2253L103.221 84.2342L104.166 83.9091ZM104.706 84.7614L104.049 85.5155L104.055 85.5206L104.706 84.7614ZM105.564 86.1648C104.785 86.1648 104.175 86.0061 103.695 85.7331L102.706 87.4714C103.544 87.9484 104.51 88.1648 105.564 88.1648V86.1648ZM103.701 85.7365C103.21 85.4526 102.836 85.0649 102.568 84.5558L100.799 85.4897C101.242 86.329 101.88 86.9943 102.7 87.468L103.701 85.7365ZM102.571 84.5617C102.304 84.0485 102.155 83.4255 102.155 82.6648H100.155C100.155 83.6919 100.358 84.6409 100.796 85.4838L102.571 84.5617ZM102.155 82.6648C102.155 81.8993 102.304 81.2775 102.57 80.7699L100.797 79.8437C100.358 80.6846 100.155 81.6348 100.155 82.6648H102.155ZM102.569 80.7717C102.837 80.2598 103.209 79.8742 103.697 79.5952L102.704 77.8593C101.881 78.3304 101.241 78.9978 100.798 79.8419L102.569 80.7717ZM103.699 79.5943C104.178 79.319 104.786 79.1591 105.564 79.1591V77.1591C104.508 77.1591 103.541 77.378 102.702 77.8603L103.699 79.5943ZM105.564 79.1591C106.342 79.1591 106.947 79.319 107.421 79.593L108.422 77.8615C107.586 77.3779 106.619 77.1591 105.564 77.1591V79.1591ZM107.427 79.5964C107.918 79.8753 108.287 80.2595 108.552 80.7679L110.326 79.8458C109.886 78.9981 109.244 78.3292 108.416 77.8581L107.427 79.5964ZM108.555 80.7738C108.822 81.2806 108.973 81.9009 108.973 82.6648H110.973C110.973 81.6331 110.768 80.6815 110.323 79.8398L108.555 80.7738ZM108.973 82.6648C108.973 83.4239 108.823 84.0454 108.554 84.5578L110.324 85.4877C110.767 84.644 110.973 83.6935 110.973 82.6648H108.973ZM108.553 84.5597C108.288 85.0652 107.917 85.4515 107.424 85.7353L108.42 87.4693C109.245 86.9955 109.885 86.3288 110.325 85.4858L108.553 84.5597ZM107.425 85.7343C106.95 86.006 106.344 86.1648 105.564 86.1648V88.1648C106.618 88.1648 107.583 87.9485 108.419 87.4702L107.425 85.7343ZM105.581 86.0682C106.137 86.0682 106.661 85.8901 107.09 85.5101L105.765 84.0126C105.732 84.0417 105.691 84.0682 105.581 84.0682V86.0682ZM107.09 85.5101C107.481 85.164 107.741 84.7158 107.905 84.2253L106.007 83.5929C105.928 83.8297 105.836 83.9497 105.765 84.0126L107.09 85.5101ZM107.902 84.2342C108.07 83.7442 108.143 83.21 108.143 82.6477H106.143C106.143 83.04 106.092 83.3467 106.01 83.584L107.902 84.2342ZM108.143 82.6477C108.143 82.0798 108.071 81.5414 107.902 81.0499L106.01 81.7001C106.091 81.9359 106.143 82.2459 106.143 82.6477H108.143ZM107.905 81.0588C107.741 80.5683 107.481 80.1201 107.09 79.774L105.765 81.2715C105.836 81.3344 105.928 81.4544 106.007 81.6912L107.905 81.0588ZM107.09 79.774C106.661 79.394 106.137 79.2159 105.581 79.2159V81.2159C105.691 81.2159 105.732 81.2424 105.765 81.2715L107.09 79.774ZM105.581 79.2159C105.022 79.2159 104.493 79.3882 104.055 79.7635L105.357 81.282C105.396 81.2482 105.45 81.2159 105.581 81.2159V79.2159ZM104.049 79.7686C103.654 80.1125 103.389 80.559 103.221 81.0499L105.112 81.7001C105.193 81.4637 105.288 81.342 105.363 81.2768L104.049 79.7686ZM103.218 81.0588C103.055 81.5473 102.984 82.0825 102.984 82.6477H104.984C104.984 82.2432 105.035 81.93 105.115 81.6912L103.218 81.0588ZM102.984 82.6477C102.984 83.2072 103.055 83.7383 103.218 84.2253L105.115 83.5929C105.035 83.3527 104.984 83.0428 104.984 82.6477H102.984ZM103.221 84.2342C103.389 84.7251 103.654 85.1716 104.049 85.5154L105.363 84.0073C105.288 83.9421 105.193 83.8204 105.112 83.584L103.221 84.2342ZM104.055 85.5206C104.493 85.8959 105.022 86.0682 105.581 86.0682V84.0682C105.45 84.0682 105.396 84.0359 105.357 84.0021L104.055 85.5206ZM111.396 87H110.396V88H111.396V87ZM111.396 78.2727V77.2727H110.396V78.2727H111.396ZM114.095 78.2727H115.095V77.2727H114.095V78.2727ZM114.095 79.8636H113.095V80.8636H114.095V79.8636ZM114.186 79.8636V80.8636H114.947L115.15 80.13L114.186 79.8636ZM114.964 78.5795L115.579 79.3685L115.584 79.3644L114.964 78.5795ZM116.618 78.1818L116.48 79.1723L116.494 79.1742L116.507 79.1757L116.618 78.1818ZM116.999 78.2557H117.999V77.5047L117.277 77.2953L116.999 78.2557ZM116.999 80.6705L116.674 81.6164L117.999 82.0705V80.6705H116.999ZM116.476 80.5625L116.352 81.5548L116.354 81.555L116.476 80.5625ZM115.016 80.7443L115.498 81.6203L115.502 81.6179L115.016 80.7443ZM114.396 81.3523L113.531 80.8507L113.529 80.8548L114.396 81.3523ZM114.175 87V88H115.175V87H114.175ZM112.396 87V78.2727H110.396V87H112.396ZM111.396 79.2727H114.095V77.2727H111.396V79.2727ZM113.095 78.2727V79.8636H115.095V78.2727H113.095ZM114.095 80.8636H114.186V78.8636H114.095V80.8636ZM115.15 80.13C115.269 79.6974 115.435 79.4809 115.579 79.3684L114.35 77.7906C113.775 78.2388 113.421 78.8784 113.222 79.5973L115.15 80.13ZM115.584 79.3644C115.76 79.2257 115.958 79.1534 116.22 79.1534V77.1534C115.528 77.1534 114.889 77.3652 114.345 77.7947L115.584 79.3644ZM116.22 79.1534C116.3 79.1534 116.386 79.1593 116.48 79.1723L116.755 77.1913C116.577 77.1665 116.398 77.1534 116.22 77.1534V79.1534ZM116.507 79.1757C116.594 79.1853 116.664 79.1997 116.72 79.216L117.277 77.2953C117.099 77.2435 116.915 77.2087 116.728 77.1879L116.507 79.1757ZM115.999 78.2557V80.6705H117.999V78.2557H115.999ZM117.323 79.7245C117.099 79.6478 116.849 79.6008 116.598 79.57L116.354 81.555C116.534 81.5772 116.633 81.6022 116.674 81.6164L117.323 79.7245ZM116.6 79.5702C116.357 79.5399 116.125 79.5227 115.908 79.5227V81.5227C116.023 81.5227 116.17 81.532 116.352 81.5548L116.6 79.5702ZM115.908 79.5227C115.423 79.5227 114.955 79.6331 114.529 79.8708L115.502 81.6179C115.606 81.5601 115.733 81.5227 115.908 81.5227V79.5227ZM114.533 79.8684C114.111 80.1012 113.773 80.4342 113.531 80.8507L115.261 81.8538C115.323 81.7476 115.398 81.6754 115.498 81.6203L114.533 79.8684ZM113.529 80.8548C113.28 81.2882 113.175 81.7688 113.175 82.2614H115.175C115.175 82.0569 115.217 81.9315 115.264 81.8498L113.529 80.8548ZM113.175 82.2614V87H115.175V82.2614H113.175ZM114.175 86H111.396V88H114.175V86ZM119.109 86.625L118.574 87.4699L118.574 87.4699L119.109 86.625ZM117.848 85.125L116.944 85.5515L116.944 85.5515L117.848 85.125ZM117.865 80.108L118.763 80.549L118.763 80.549L117.865 80.108ZM119.143 78.6364L118.629 77.7789L118.626 77.7805L119.143 78.6364ZM122.03 78.3977L121.591 79.2963L121.599 79.3004L122.03 78.3977ZM122.837 79L123.594 78.3473L123.594 78.3473L122.837 79ZM123.32 79.767L122.396 80.1498L122.651 80.767H123.32V79.767ZM123.376 79.767V80.767H124.376V79.767H123.376ZM123.376 75.3636V74.3636H122.376V75.3636H123.376ZM126.155 75.3636H127.155V74.3636H126.155V75.3636ZM126.155 87V88H127.155V87H126.155ZM123.405 87H122.405V88H123.405V87ZM123.405 85.5852H124.405V84.5852H123.405V85.5852ZM123.32 85.5852V84.5852H122.665L122.403 85.1851L123.32 85.5852ZM122.82 86.3409L122.083 85.6641L122.083 85.6641L122.82 86.3409ZM122.007 86.9091L121.603 85.9944L121.599 85.9962L122.007 86.9091ZM122.695 84.6761L123.316 85.4595L123.324 85.4534L122.695 84.6761ZM123.246 83.8636L124.184 84.2103L124.184 84.2103L123.246 83.8636ZM123.246 81.4034L122.306 81.7443L122.309 81.7534L123.246 81.4034ZM122.695 80.608L122.081 81.3973L122.087 81.402L122.695 80.608ZM120.956 80.6136L121.578 81.3969L120.956 80.6136ZM120.411 81.4148L119.47 81.0738L119.467 81.083L120.411 81.4148ZM120.956 84.6761L120.321 85.4484L120.327 85.454L120.334 85.4594L120.956 84.6761ZM120.865 86.125C120.404 86.125 120.005 86.0086 119.644 85.7801L118.574 87.4699C119.267 87.9081 120.038 88.125 120.865 88.125V86.125ZM119.644 85.7801C119.306 85.5656 119.001 85.2253 118.752 84.6985L116.944 85.5515C117.324 86.3581 117.86 87.0177 118.574 87.4699L119.644 85.7801ZM118.752 84.6985C118.519 84.2026 118.376 83.531 118.376 82.642H116.376C116.376 83.7303 116.549 84.7141 116.944 85.5515L118.752 84.6985ZM118.376 82.642C118.376 81.7124 118.525 81.0319 118.763 80.549L116.968 79.6669C116.553 80.5098 116.376 81.5187 116.376 82.642H118.376ZM118.763 80.549C119.021 80.0231 119.328 79.6931 119.661 79.4922L118.626 77.7805C117.906 78.216 117.361 78.867 116.968 79.6669L118.763 80.549ZM119.658 79.4939C120.035 79.2675 120.428 79.1591 120.854 79.1591V77.1591C120.06 77.1591 119.312 77.3688 118.629 77.7789L119.658 79.4939ZM120.854 79.1591C121.199 79.1591 121.433 79.2192 121.591 79.2963L122.469 77.4992C121.975 77.2581 121.425 77.1591 120.854 77.1591V79.1591ZM121.599 79.3004C121.814 79.4026 121.967 79.5227 122.079 79.6527L123.594 78.3473C123.282 77.9849 122.897 77.7035 122.46 77.4951L121.599 79.3004ZM122.079 79.6527C122.231 79.8289 122.332 79.9949 122.396 80.1498L124.243 79.3843C124.088 79.0089 123.867 78.6636 123.594 78.3473L122.079 79.6527ZM123.32 80.767H123.376V78.767H123.32V80.767ZM124.376 79.767V75.3636H122.376V79.767H124.376ZM123.376 76.3636H126.155V74.3636H123.376V76.3636ZM125.155 75.3636V87H127.155V75.3636H125.155ZM126.155 86H123.405V88H126.155V86ZM124.405 87V85.5852H122.405V87H124.405ZM123.405 84.5852H123.32V86.5852H123.405V84.5852ZM122.403 85.1851C122.334 85.344 122.231 85.5038 122.083 85.6641L123.556 87.0177C123.84 86.7084 124.071 86.3644 124.236 85.9854L122.403 85.1851ZM122.083 85.6641C121.971 85.7865 121.818 85.8996 121.603 85.9944L122.411 87.8238C122.848 87.6307 123.236 87.365 123.556 87.0177L122.083 85.6641ZM121.599 85.9962C121.433 86.0704 121.197 86.125 120.865 86.125V88.125C121.412 88.125 121.937 88.0356 122.415 87.822L121.599 85.9962ZM121.831 85.9602C122.368 85.9602 122.882 85.8042 123.316 85.4594L122.073 83.8928C122.03 83.9268 121.968 83.9602 121.831 83.9602V85.9602ZM123.324 85.4534C123.729 85.1254 124.006 84.692 124.184 84.2103L122.308 83.517C122.228 83.7323 122.138 83.8405 122.065 83.8989L123.324 85.4534ZM124.184 84.2103C124.363 83.7259 124.439 83.1944 124.439 82.6364H122.439C122.439 83.0177 122.386 83.3044 122.308 83.517L124.184 84.2103ZM124.439 82.6364C124.439 82.0733 124.363 81.5378 124.182 81.0534L122.309 81.7534C122.386 81.9584 122.439 82.2449 122.439 82.6364H124.439ZM124.186 81.0625C124.009 80.5746 123.725 80.1373 123.303 79.8139L122.087 81.402C122.149 81.4499 122.233 81.5428 122.306 81.7443L124.186 81.0625ZM123.309 79.8186C122.874 79.4808 122.363 79.3295 121.831 79.3295V81.3295C121.973 81.3295 122.038 81.3639 122.081 81.3973L123.309 79.8186ZM121.831 79.3295C121.292 79.3295 120.773 79.4823 120.334 79.8303L121.578 81.3969C121.616 81.3661 121.681 81.3295 121.831 81.3295V79.3295ZM120.334 79.8303C119.924 80.1564 119.646 80.5907 119.47 81.0739L121.351 81.7557C121.425 81.5494 121.511 81.4497 121.578 81.3969L120.334 79.8303ZM119.467 81.083C119.299 81.5598 119.229 82.0843 119.229 82.6364H121.229C121.229 82.249 121.279 81.9591 121.354 81.7465L119.467 81.083ZM119.229 82.6364C119.229 83.1916 119.302 83.7198 119.475 84.2013L121.357 83.526C121.28 83.3105 121.229 83.0205 121.229 82.6364H119.229ZM119.475 84.2013C119.648 84.6827 119.919 85.118 120.321 85.4484L121.591 83.9038C121.523 83.8479 121.435 83.7416 121.357 83.526L119.475 84.2013ZM120.334 85.4594C120.773 85.8074 121.292 85.9602 121.831 85.9602V83.9602C121.681 83.9602 121.616 83.9236 121.578 83.8928L120.334 85.4594ZM131.349 87H130.349V88H131.349V87ZM131.349 75.3636V74.3636H130.349V75.3636H131.349ZM138.389 75.733L138.002 76.6552L138.005 76.656L138.389 75.733ZM139.719 76.767L138.887 77.3218L138.89 77.3266L139.719 76.767ZM139.889 79.4943L140.77 79.9684L140.772 79.9644L139.889 79.4943ZM139.122 80.3523L138.55 79.5321L138.55 79.5321L139.122 80.3523ZM137.991 80.8295L137.784 79.8514L136.991 80.0196V80.8295H137.991ZM137.991 80.9432H136.991V81.896L137.943 81.942L137.991 80.9432ZM139.293 81.3239L138.79 82.1885L138.794 82.1906L139.293 81.3239ZM140.259 82.2898L139.396 82.7961L139.398 82.7996L140.259 82.2898ZM140.145 85.4205L140.983 85.9661L140.985 85.9632L140.145 85.4205ZM138.764 86.5795L139.186 87.4862L139.191 87.484L138.764 86.5795ZM134.162 84.733H133.162V85.733H134.162V84.733ZM137.247 84.3864L136.626 83.6025L136.621 83.6065L137.247 84.3864ZM137.474 82.6477L136.631 83.1856L136.636 83.1922L137.474 82.6477ZM136.878 82.142L136.452 83.0469L136.463 83.052L136.878 82.142ZM134.162 81.9602V80.9602H133.162V81.9602H134.162ZM134.162 80.1477H133.162V81.1477H134.162V80.1477ZM137.094 79.5511L136.277 78.9744L136.269 78.9853L137.094 79.5511ZM136.884 77.9318L137.512 77.1541L137.512 77.1541L136.884 77.9318ZM134.162 77.5966V76.5966H133.162V77.5966H134.162ZM132.349 87V75.3636H130.349V87H132.349ZM131.349 76.3636H136.202V74.3636H131.349V76.3636ZM136.202 76.3636C136.986 76.3636 137.574 76.4755 138.002 76.6551L138.776 74.8108C138.03 74.498 137.16 74.3636 136.202 74.3636V76.3636ZM138.005 76.656C138.451 76.8419 138.721 77.0735 138.887 77.3217L140.551 76.2123C140.125 75.5742 139.51 75.1165 138.774 74.8099L138.005 76.656ZM138.89 77.3266C139.067 77.5895 139.168 77.904 139.168 78.3068H141.168C141.168 77.543 140.969 76.8309 140.548 76.2075L138.89 77.3266ZM139.168 78.3068C139.168 78.6064 139.106 78.8374 139.007 79.0242L140.772 79.9644C141.044 79.4542 141.168 78.8936 141.168 78.3068H139.168ZM139.009 79.0202C138.898 79.2249 138.749 79.3931 138.55 79.5321L139.694 81.1724C140.147 80.8569 140.509 80.4531 140.77 79.9684L139.009 79.0202ZM138.55 79.5321C138.345 79.6754 138.094 79.7854 137.784 79.8514L138.199 81.8077C138.745 81.6919 139.248 81.4836 139.694 81.1724L138.55 79.5321ZM136.991 80.8295V80.9432H138.991V80.8295H136.991ZM137.943 81.942C138.257 81.9572 138.534 82.0397 138.79 82.1885L139.795 80.4592C139.256 80.1459 138.666 79.9746 138.04 79.9444L137.943 81.942ZM138.794 82.1906C139.04 82.3321 139.239 82.5276 139.396 82.7961L141.121 81.7834C140.794 81.2262 140.348 80.7777 139.791 80.4571L138.794 82.1906ZM139.398 82.7996C139.534 83.0287 139.622 83.3307 139.622 83.7443H141.622C141.622 83.0367 141.468 82.369 141.119 81.78L139.398 82.7996ZM139.622 83.7443C139.622 84.1901 139.512 84.5579 139.305 84.8777L140.985 85.9632C141.414 85.2982 141.622 84.5485 141.622 83.7443H139.622ZM139.307 84.8748C139.104 85.1869 138.796 85.4587 138.338 85.6751L139.191 87.484C139.936 87.1323 140.55 86.6313 140.983 85.9661L139.307 84.8748ZM138.342 85.6729C137.905 85.8764 137.326 86 136.571 86V88C137.535 88 138.419 87.8433 139.186 87.4862L138.342 85.6729ZM136.571 86H131.349V88H136.571V86ZM134.162 85.733H135.901V83.733H134.162V85.733ZM135.901 85.733C136.601 85.733 137.324 85.6066 137.873 85.1662L136.621 83.6065C136.594 83.6282 136.419 83.733 135.901 83.733V85.733ZM137.868 85.1702C138.428 84.727 138.685 84.1006 138.685 83.4205H136.685C136.685 83.5083 136.67 83.5476 136.664 83.559C136.661 83.5672 136.654 83.5805 136.626 83.6025L137.868 85.1702ZM138.685 83.4205C138.685 82.9601 138.575 82.5062 138.313 82.1033L136.636 83.1922C136.654 83.221 136.685 83.2824 136.685 83.4205H138.685ZM138.317 82.1099C138.065 81.7134 137.71 81.4224 137.293 81.2321L136.463 83.052C136.561 83.0965 136.604 83.1427 136.631 83.1855L138.317 82.1099ZM137.304 81.2372C136.883 81.0391 136.421 80.9602 135.952 80.9602V82.9602C136.202 82.9602 136.358 83.0026 136.452 83.0469L137.304 81.2372ZM135.952 80.9602H134.162V82.9602H135.952V80.9602ZM133.162 81.9602V84.733H135.162V81.9602H133.162ZM134.162 81.1477H135.719V79.1477H134.162V81.1477ZM135.719 81.1477C136.137 81.1477 136.547 81.0779 136.931 80.9135L136.143 79.0752C136.049 79.1153 135.914 79.1477 135.719 79.1477V81.1477ZM136.931 80.9135C137.324 80.7449 137.667 80.4829 137.918 80.117L136.269 78.9853C136.255 79.0057 136.227 79.0392 136.143 79.0752L136.931 80.9135ZM137.911 80.1278C138.184 79.741 138.298 79.2988 138.298 78.8523H136.298C136.298 78.9051 136.292 78.9359 136.287 78.9506C136.283 78.9642 136.28 78.9703 136.277 78.9745L137.911 80.1278ZM138.298 78.8523C138.298 78.1936 138.048 77.5875 137.512 77.1541L136.255 78.7096C136.268 78.7204 136.275 78.7278 136.277 78.7311C136.28 78.7342 136.281 78.7368 136.283 78.7404C136.285 78.7457 136.298 78.7764 136.298 78.8523H138.298ZM137.512 77.1541C137.008 76.7464 136.389 76.5966 135.764 76.5966V78.5966C136.079 78.5966 136.206 78.6703 136.255 78.7096L137.512 77.1541ZM135.764 76.5966H134.162V78.5966H135.764V76.5966ZM133.162 77.5966V80.1477H135.162V77.5966H133.162ZM143.685 86.6023L143.184 87.4681L143.19 87.4714L143.685 86.6023ZM142.168 85.0227L141.28 85.4838L141.283 85.4897L142.168 85.0227ZM142.168 80.3068L141.282 79.8419L141.281 79.8437L142.168 80.3068ZM143.685 78.7273L144.181 79.5952L144.183 79.5943L143.685 78.7273ZM148.406 78.7273L147.906 79.5931L147.912 79.5964L148.406 78.7273ZM149.923 80.3068L149.036 80.7679L149.039 80.7738L149.923 80.3068ZM149.923 85.0227L149.038 84.5578L149.037 84.5597L149.923 85.0227ZM148.406 86.6023L148.903 87.4702L148.905 87.4693L148.406 86.6023ZM146.912 84.7614L146.249 84.0126L146.249 84.0126L146.912 84.7614ZM147.44 83.9091L146.495 83.584L146.492 83.5929L147.44 83.9091ZM147.44 81.375L146.492 81.6912L146.495 81.7001L147.44 81.375ZM146.912 80.5227L147.575 79.774L147.575 79.774L146.912 80.5227ZM145.19 80.5227L144.54 79.7634L144.534 79.7686L145.19 80.5227ZM144.651 81.375L143.705 81.0499L143.702 81.0588L144.651 81.375ZM144.651 83.9091L143.702 84.2253L143.705 84.2342L144.651 83.9091ZM145.19 84.7614L144.534 85.5155L144.54 85.5206L145.19 84.7614ZM146.048 86.1648C145.269 86.1648 144.659 86.0061 144.179 85.7331L143.19 87.4714C144.028 87.9484 144.994 88.1648 146.048 88.1648V86.1648ZM144.185 85.7365C143.694 85.4526 143.321 85.0649 143.052 84.5558L141.283 85.4897C141.727 86.329 142.365 86.9943 143.184 87.468L144.185 85.7365ZM143.055 84.5617C142.788 84.0485 142.639 83.4255 142.639 82.6648H140.639C140.639 83.6919 140.842 84.6409 141.28 85.4838L143.055 84.5617ZM142.639 82.6648C142.639 81.8993 142.789 81.2775 143.054 80.7699L141.281 79.8437C140.842 80.6846 140.639 81.6348 140.639 82.6648H142.639ZM143.053 80.7717C143.322 80.2598 143.694 79.8742 144.181 79.5952L143.188 77.8593C142.365 78.3304 141.726 78.9978 141.282 79.8419L143.053 80.7717ZM144.183 79.5943C144.662 79.319 145.271 79.1591 146.048 79.1591V77.1591C144.993 77.1591 144.025 77.378 143.186 77.8603L144.183 79.5943ZM146.048 79.1591C146.826 79.1591 147.432 79.319 147.906 79.593L148.907 77.8615C148.07 77.3779 147.104 77.1591 146.048 77.1591V79.1591ZM147.912 79.5964C148.402 79.8753 148.772 80.2595 149.036 80.7679L150.811 79.8458C150.37 78.9981 149.729 78.3292 148.901 77.8581L147.912 79.5964ZM149.039 80.7738C149.307 81.2806 149.457 81.9009 149.457 82.6648H151.457C151.457 81.6331 151.252 80.6815 150.808 79.8398L149.039 80.7738ZM149.457 82.6648C149.457 83.4239 149.307 84.0454 149.038 84.5578L150.809 85.4877C151.252 84.644 151.457 83.6935 151.457 82.6648H149.457ZM149.037 84.5597C148.773 85.0652 148.402 85.4515 147.908 85.7353L148.905 87.4693C149.729 86.9955 150.369 86.3288 150.81 85.4858L149.037 84.5597ZM147.91 85.7343C147.435 86.006 146.828 86.1648 146.048 86.1648V88.1648C147.102 88.1648 148.067 87.9485 148.903 87.4702L147.91 85.7343ZM146.065 86.0682C146.622 86.0682 147.146 85.8901 147.575 85.5101L146.249 84.0126C146.216 84.0417 146.176 84.0682 146.065 84.0682V86.0682ZM147.575 85.5101C147.966 85.164 148.226 84.7158 148.389 84.2253L146.492 83.5929C146.413 83.8297 146.32 83.9497 146.249 84.0126L147.575 85.5101ZM148.386 84.2342C148.554 83.7442 148.628 83.21 148.628 82.6477H146.628C146.628 83.04 146.576 83.3467 146.495 83.584L148.386 84.2342ZM148.628 82.6477C148.628 82.0798 148.555 81.5414 148.386 81.0499L146.495 81.7001C146.576 81.9359 146.628 82.2459 146.628 82.6477H148.628ZM148.389 81.0588C148.226 80.5683 147.966 80.1201 147.575 79.774L146.249 81.2715C146.32 81.3344 146.413 81.4544 146.492 81.6912L148.389 81.0588ZM147.575 79.774C147.146 79.394 146.622 79.2159 146.065 79.2159V81.2159C146.176 81.2159 146.216 81.2424 146.249 81.2715L147.575 79.774ZM146.065 79.2159C145.507 79.2159 144.977 79.3882 144.54 79.7635L145.841 81.282C145.881 81.2482 145.935 81.2159 146.065 81.2159V79.2159ZM144.534 79.7686C144.139 80.1125 143.874 80.559 143.705 81.0499L145.596 81.7001C145.678 81.4637 145.772 81.342 145.847 81.2768L144.534 79.7686ZM143.702 81.0588C143.539 81.5473 143.469 82.0825 143.469 82.6477H145.469C145.469 82.2432 145.52 81.93 145.599 81.6912L143.702 81.0588ZM143.469 82.6477C143.469 83.2072 143.54 83.7383 143.702 84.2253L145.599 83.5929C145.519 83.3527 145.469 83.0428 145.469 82.6477H143.469ZM143.705 84.2342C143.874 84.7251 144.139 85.1716 144.534 85.5154L145.847 84.0073C145.772 83.9421 145.678 83.8204 145.596 83.584L143.705 84.2342ZM144.54 85.5206C144.977 85.8959 145.507 86.0682 146.065 86.0682V84.0682C145.935 84.0682 145.881 84.0359 145.841 84.0021L144.54 85.5206ZM153.932 78.2727L154.826 77.8255L154.55 77.2727H153.932V78.2727ZM155.369 81.1477L154.475 81.5949L155.354 83.3526L156.257 81.6075L155.369 81.1477ZM156.858 78.2727V77.2727H156.25L155.97 77.8129L156.858 78.2727ZM159.659 78.2727L160.532 78.7604L161.363 77.2727H159.659V78.2727ZM157.222 82.6364L156.349 82.1487L156.071 82.6454L156.356 83.1377L157.222 82.6364ZM159.75 87V88H161.485L160.615 86.4987L159.75 87ZM156.972 87L156.096 87.4839L156.382 88H156.972V87ZM155.369 84.1023L156.244 83.6184L155.358 82.0158L154.489 83.6277L155.369 84.1023ZM153.807 87V88H154.404L154.687 87.4746L153.807 87ZM150.989 87L150.124 86.4978L149.252 88H150.989V87ZM153.523 82.6364L154.387 83.1386L154.672 82.6488L154.398 82.153L153.523 82.6364ZM151.114 78.2727V77.2727H149.419L150.238 78.756L151.114 78.2727ZM153.037 78.7199L154.475 81.5949L156.264 80.7005L154.826 77.8255L153.037 78.7199ZM156.257 81.6075L157.746 78.7325L155.97 77.8129L154.481 80.6879L156.257 81.6075ZM156.858 79.2727H159.659V77.2727H156.858V79.2727ZM158.786 77.7851L156.349 82.1487L158.095 83.124L160.532 78.7604L158.786 77.7851ZM156.356 83.1377L158.885 87.5013L160.615 86.4987L158.087 82.135L156.356 83.1377ZM159.75 86H156.972V88H159.75V86ZM157.847 86.5161L156.244 83.6184L154.494 84.5862L156.096 87.4839L157.847 86.5161ZM154.489 83.6277L152.927 86.5254L154.687 87.4746L156.25 84.5769L154.489 83.6277ZM153.807 86H150.989V88H153.807V86ZM151.853 87.5022L154.387 83.1386L152.658 82.1342L150.124 86.4978L151.853 87.5022ZM154.398 82.153L151.989 77.7894L150.238 78.756L152.647 83.1197L154.398 82.153ZM151.114 79.2727H153.932V77.2727H151.114V79.2727Z" fill="white"/>
</g>
<defs>
<filter id="filter0_d_0_1" x="67.8806" y="75.3636" width="95.8694" height="19.8011" filterUnits="userSpaceOnUse" color-interpolation-filters="sRGB">
<feFlood flood-opacity="0" result="BackgroundImageFix"/>
<feColorMatrix in="SourceAlpha" type="matrix" values="0 0 0 0 0 0 0 0 0 0 0 0 0 0 0 0 0 0 127 0" result="hardAlpha"/>
<feOffset dy="4"/>
<feGaussianBlur stdDeviation="2"/>
<feComposite in2="hardAlpha" operator="out"/>
<feColorMatrix type="matrix" values="0 0 0 0 0 0 0 0 0 0 0 0 0 0 0 0 0 0 0.25 0"/>
<feBlend mode="normal" in2="BackgroundImageFix" result="effect1_dropShadow_0_1"/>
<feBlend mode="normal" in="SourceGraphic" in2="effect1_dropShadow_0_1" result="shape"/>
</filter>
</defs>
</svg>
